<svg id="Capa_1" enable-background="new 0 0 512 512" height="512" viewBox="0 0 512 512" width="512" xmlns="http://www.w3.org/2000/svg"><g><g><g><g><g><g><g><g><path d="m210.974 82.374h-151.127c-4.142 0-7.5-3.357-7.5-7.5s3.358-7.5 7.5-7.5h151.127c4.142 0 7.5 3.357 7.5 7.5s-3.358 7.5-7.5 7.5z"/></g><g><path d="m210.974 131.75h-151.127c-4.142 0-7.5-3.357-7.5-7.5s3.358-7.5 7.5-7.5h151.127c4.142 0 7.5 3.357 7.5 7.5s-3.358 7.5-7.5 7.5z"/></g></g></g></g><g><g><path d="m347.823 222.896h-287.976c-4.142 0-7.5-3.357-7.5-7.5s3.358-7.5 7.5-7.5h287.976c4.142 0 7.5 3.357 7.5 7.5s-3.358 7.5-7.5 7.5z"/></g><g><path d="m347.823 284.998h-287.976c-4.142 0-7.5-3.357-7.5-7.5s3.358-7.5 7.5-7.5h287.976c4.142 0 7.5 3.357 7.5 7.5s-3.358 7.5-7.5 7.5z"/></g><g><path d="m273.016 347.101h-213.169c-4.142 0-7.5-3.357-7.5-7.5s3.358-7.5 7.5-7.5h213.169c4.142 0 7.5 3.357 7.5 7.5s-3.358 7.5-7.5 7.5z"/></g><g><path d="m273.016 409.203h-213.169c-4.142 0-7.5-3.357-7.5-7.5s3.358-7.5 7.5-7.5h213.169c4.142 0 7.5 3.357 7.5 7.5s-3.358 7.5-7.5 7.5z"/></g></g></g></g></g><g><path d="m429.504 512h-54.366c-12.805 0-23.222-10.418-23.222-23.223v-113.463h-40.002c-6.257 0-11.848-3.735-14.243-9.517-2.395-5.781-1.083-12.375 3.342-16.8l90.408-90.408c6.011-6.01 15.791-6.01 21.8 0l90.408 90.408c4.425 4.425 5.736 11.019 3.342 16.8-2.395 5.781-7.985 9.517-14.243 9.517h-40.002v113.463c0 12.805-10.417 23.223-23.222 23.223zm-27.183-242.925c-.106 0-.213.041-.294.122l-90.407 90.408c-.118.118-.196.195-.09.452s.217.257.384.257h47.502c4.142 0 7.5 3.357 7.5 7.5v120.963c0 4.534 3.688 8.223 8.222 8.223h54.366c4.534 0 8.222-3.688 8.222-8.223v-120.963c0-4.143 3.358-7.5 7.5-7.5h47.502c.167 0 .278 0 .384-.257.106-.256.028-.334-.09-.452l-90.408-90.408c-.08-.081-.187-.122-.293-.122z"/></g><path d="m407.624 118.946-116.75-116.75c-1.406-1.406-3.314-2.196-5.303-2.196h-247.75c-18.733 0-33.973 15.24-33.973 33.974v444.053c0 18.733 15.24 33.973 33.973 33.973h287.443c4.142 0 7.5-3.357 7.5-7.5s-3.358-7.5-7.5-7.5h-287.443c-10.462 0-18.973-8.512-18.973-18.974v-444.052c0-10.462 8.511-18.974 18.973-18.974h240.25v89.247c0 15.165 12.337 27.503 27.502 27.503h89.248v95.135c0 4.143 3.358 7.5 7.5 7.5s7.5-3.357 7.5-7.5v-102.635c0-1.989-.79-3.896-2.197-5.304zm-114.553-14.699v-78.641l91.144 91.144h-78.641c-6.895 0-12.503-5.608-12.503-12.503z"/></g></svg>