<svg xmlns="http://www.w3.org/2000/svg" viewBox="0 0 53.4 53.4"><defs><style>.cls-1{fill:#fff;stroke:#231f20;stroke-miterlimit:10;}.cls-2{fill:#010101;}</style></defs><g id="Layer_2" data-name="Layer 2"><g id="Layer_1-2" data-name="Layer 1"><circle class="cls-1" cx="26.7" cy="26.7" r="26.2"/><g id="Line"><path class="cls-2" d="M25.4,45a1.72,1.72,0,0,1-1.89-.9l-2.24-4.39a.23.23,0,0,1,.4-.21l2.24,4.39a1.26,1.26,0,0,0,2.25-1.15L20.47,31.58a.22.22,0,0,1,.1-.3.23.23,0,0,1,.3.1l5.69,11.17a1.71,1.71,0,0,1-.74,2.31,1.62,1.62,0,0,1-.42.15Z"/><path class="cls-2" d="M19.44,35.77a.23.23,0,0,1-.25-.12l-1.57-3.09a.22.22,0,0,1,.09-.3.22.22,0,0,1,.3.09h0l1.58,3.08a.24.24,0,0,1-.1.31Z"/><path class="cls-2" d="M17,30.94a.22.22,0,0,1-.24-.12L14.8,27a.23.23,0,0,1,.4-.21l1.94,3.8a.23.23,0,0,1-.1.3h0Z"/><path class="cls-2" d="M18.64,27.63a.23.23,0,0,1-.25-.12l-.94-1.84a.22.22,0,0,1,.1-.3.22.22,0,0,1,.3.09h0l.94,1.84a.22.22,0,0,1-.1.3l-.05,0Z"/><path class="cls-2" d="M20.17,33.13h0a.68.68,0,0,1-.73-.37l-.87-1.7a4.52,4.52,0,0,1,.2-4.42.85.85,0,0,1,1.16-.27.78.78,0,0,1,.28.29,7.46,7.46,0,0,1,.35.69.23.23,0,0,1-.11.3.22.22,0,0,1-.3-.12h0a5.46,5.46,0,0,0-.32-.64.39.39,0,0,0-.54-.14.4.4,0,0,0-.13.13,4,4,0,0,0-.18,4l.86,1.7a.26.26,0,0,0,.35.11.26.26,0,0,0,.13-.19l.26-1.58a5.56,5.56,0,0,0,.06-1.29.24.24,0,0,1,.21-.24.23.23,0,0,1,.24.21h0A6.36,6.36,0,0,1,21,31l-.25,1.58a.7.7,0,0,1-.56.58Z"/><path class="cls-2" d="M22.78,40.35a.69.69,0,0,1-.47-.06l-1.43-.72a6.51,6.51,0,0,1-3-3.18.86.86,0,0,1,.43-1.11.92.92,0,0,1,.4-.07,4.51,4.51,0,0,1,3.69,2.44l.87,1.69a.7.7,0,0,1-.13.82.64.64,0,0,1-.35.19Zm-4.22-4.68a.39.39,0,0,0-.3.47.19.19,0,0,0,0,.07,6.12,6.12,0,0,0,2.81,3l1.42.72a.27.27,0,0,0,.35-.11.31.31,0,0,0,0-.23L22,37.85a4,4,0,0,0-3.32-2.19Z"/><path class="cls-2" d="M11.11,20.29a.23.23,0,0,1-.27-.17h0a22.13,22.13,0,0,1-.44-3.24,1.12,1.12,0,0,1,1-1.18,1.08,1.08,0,0,1,.78.25,21,21,0,0,1,2.36,2.26.22.22,0,0,1,0,.32.23.23,0,0,1-.32,0h0a21.93,21.93,0,0,0-2.31-2.21.67.67,0,0,0-1.09.56A22.77,22.77,0,0,0,11.28,20a.22.22,0,0,1-.17.26Z"/><path class="cls-2" d="M16.4,26.53a.22.22,0,0,1-.24-.12l-1.83-3.58a5.34,5.34,0,0,1,.23-5.22.95.95,0,0,1,1.64,0,7.77,7.77,0,0,1,1,2.95.23.23,0,0,1-.45.05,7.33,7.33,0,0,0-.93-2.77.51.51,0,0,0-.7-.18.69.69,0,0,0-.18.16,4.88,4.88,0,0,0-.21,4.78l1.83,3.59a.23.23,0,0,1-.1.3l-.06,0Z"/><path class="cls-2" d="M16.4,26.53a.22.22,0,0,1-.11,0,.21.21,0,0,1-.13-.11,5.41,5.41,0,0,1,.39-5.59l.62-.9a1,1,0,0,1,1.81.41l.28,1.61a.22.22,0,0,1-.44.08l-.28-1.62A.56.56,0,0,0,17.9,20a.61.61,0,0,0-.36.23l-.63.9A5,5,0,0,0,16.46,26l.49-.25a3.48,3.48,0,0,0,1.45-1.37.22.22,0,0,1,.3-.09.23.23,0,0,1,.09.31h0a4,4,0,0,1-1.64,1.55l-.69.35-.06,0Z"/><path class="cls-2" d="M16.4,26.53a.22.22,0,0,1-.24-.12l-1.83-3.58a4.85,4.85,0,0,0-4-2.63.51.51,0,0,0-.54.48.59.59,0,0,0,.05.23,7.18,7.18,0,0,0,1.69,2.39.21.21,0,0,1,0,.31.22.22,0,0,1-.3,0,7.72,7.72,0,0,1-1.81-2.54,1,1,0,0,1,.49-1.26.88.88,0,0,1,.45-.08,5.29,5.29,0,0,1,4.37,2.87l1.83,3.59a.23.23,0,0,1-.1.3l-.06,0Z"/><path class="cls-2" d="M14.78,27.21a3.93,3.93,0,0,1-3.66-1.12L10,24.92a1,1,0,0,1,0-1.42,1.07,1.07,0,0,1,.72-.28l1.1,0a5.41,5.41,0,0,1,4.75,3,.2.2,0,0,1,0,.17.28.28,0,0,1-.11.13l-.69.35a3.89,3.89,0,0,1-1,.35Zm-4.21-3.53a.56.56,0,0,0-.42.66.61.61,0,0,0,.15.26l1.14,1.18a3.5,3.5,0,0,0,4.12.68l.49-.25a5,5,0,0,0-4.25-2.52l-1.1,0Z"/><path class="cls-2" d="M28.05,45.3a1.72,1.72,0,0,1-1.31-2,2.41,2.41,0,0,1,.16-.42l2.27-4.37a.22.22,0,1,1,.4.2h0L27.3,43a1.26,1.26,0,0,0,2.24,1.17l5.78-11.14a.22.22,0,0,1,.3-.09.22.22,0,0,1,.1.3h0L29.94,44.41a1.73,1.73,0,0,1-1.89.89Z"/><path class="cls-2" d="M31.42,34.73l-.05,0a.22.22,0,0,1-.1-.3l1.8-3.47a.24.24,0,0,1,.31-.1.23.23,0,0,1,.09.31h0l-1.8,3.46a.23.23,0,0,1-.25.12Z"/><path class="cls-2" d="M34.89,28.07l-.06,0a.24.24,0,0,1-.1-.31l1-1.92a.23.23,0,0,1,.31-.1.23.23,0,0,1,.09.31l-1,1.92A.23.23,0,0,1,34.89,28.07Z"/><path class="cls-2" d="M37.58,29.35l-.06,0a.23.23,0,0,1-.09-.31l1-1.83a.23.23,0,0,1,.3-.1.24.24,0,0,1,.1.31h0l-1,1.83a.22.22,0,0,1-.24.12Z"/><path class="cls-2" d="M34.21,33.91a.73.73,0,0,1-.35-.2.68.68,0,0,1-.12-.82l.87-1.68a4.52,4.52,0,0,1,3.72-2.41A.83.83,0,0,1,39.14,30a6.55,6.55,0,0,1-3,3.16l-1.43.71a.76.76,0,0,1-.47.06Zm-.07-.81a.25.25,0,0,0,.11.35.3.3,0,0,0,.23,0l1.43-.72a6,6,0,0,0,2.82-2.93.4.4,0,0,0-.19-.52.58.58,0,0,0-.19,0A4,4,0,0,0,35,31.41Z"/><path class="cls-2" d="M29.85,40.22a.7.7,0,0,1-.55-.58l-.24-1.58a6.54,6.54,0,0,1,.84-4.3.83.83,0,0,1,1.15-.29.78.78,0,0,1,.29.28A4.52,4.52,0,0,1,32,35.53,4.38,4.38,0,0,1,32,36a.23.23,0,1,1-.45,0A4,4,0,0,0,31,34a.39.39,0,0,0-.54-.13.33.33,0,0,0-.13.13,6,6,0,0,0-.78,4l.24,1.58a.25.25,0,0,0,.29.21.23.23,0,0,0,.18-.13L31.1,38a.24.24,0,0,1,.31-.1.23.23,0,0,1,.09.31h0l-.88,1.68a.69.69,0,0,1-.74.38Z"/><path class="cls-2" d="M42.52,20.69a.23.23,0,0,1-.17-.27,21.09,21.09,0,0,0,.45-3.16.66.66,0,0,0-1.08-.57,22,22,0,0,0-2.33,2.19.23.23,0,0,1-.32,0,.22.22,0,0,1,0-.32,23.88,23.88,0,0,1,2.37-2.24,1.12,1.12,0,0,1,1.82.95,22.23,22.23,0,0,1-.46,3.23.24.24,0,0,1-.27.17Z"/><path class="cls-2" d="M37.18,26.89l-.06,0a.22.22,0,0,1-.09-.3L38.88,23a5.3,5.3,0,0,1,4.39-2.85,1,1,0,0,1,1,.9,1,1,0,0,1-.08.46A7.67,7.67,0,0,1,42.38,24a.22.22,0,1,1-.3-.33,7.19,7.19,0,0,0,1.71-2.37.51.51,0,0,0-.26-.67.47.47,0,0,0-.24,0,4.86,4.86,0,0,0-4,2.61l-1.86,3.57a.23.23,0,0,1-.24.11Z"/><path class="cls-2" d="M38.79,27.58a3.82,3.82,0,0,1-1-.35l-.69-.36a.28.28,0,0,1-.11-.13.2.2,0,0,1,0-.17,5.42,5.42,0,0,1,4.77-2.94h1.09a1,1,0,0,1,.73,1.71l-1.16,1.16a3.91,3.91,0,0,1-3.67,1.09Zm-1.26-1,.49.25a3.49,3.49,0,0,0,4.12-.65L43.3,25a.54.54,0,0,0,0-.77.51.51,0,0,0-.39-.16H41.8A5,5,0,0,0,37.53,26.58Z"/><path class="cls-2" d="M37.18,26.89l-.06,0a.22.22,0,0,1-.09-.3L38.88,23a4.9,4.9,0,0,0-.18-4.79.5.5,0,0,0-.7-.16.46.46,0,0,0-.17.17,7.21,7.21,0,0,0-1,2.77.22.22,0,0,1-.25.19.24.24,0,0,1-.2-.25h0a7.87,7.87,0,0,1,1-2.94,1,1,0,0,1,1.32-.33,1,1,0,0,1,.32.32,5.3,5.3,0,0,1,.2,5.23l-1.85,3.57A.23.23,0,0,1,37.18,26.89Z"/><path class="cls-2" d="M37.18,26.89l-.06,0-.69-.36a4,4,0,0,1-1.88-2.1.23.23,0,0,1,.12-.3.23.23,0,0,1,.3.12h0a3.52,3.52,0,0,0,1.67,1.87l.49.25a5,5,0,0,0-.42-4.92l-.62-.91a.56.56,0,0,0-.77-.14.58.58,0,0,0-.23.36l-.15.85a.22.22,0,1,1-.44-.08l.15-.85a1,1,0,0,1,1.16-.8,1,1,0,0,1,.65.41l.62.9a5.43,5.43,0,0,1,.35,5.59.19.19,0,0,1-.14.11.14.14,0,0,1-.11,0Z"/></g></g></g></svg>