<?xml version="1.0" encoding="iso-8859-1"?>
<!-- Generator: Adobe Illustrator 19.0.0, SVG Export Plug-In . SVG Version: 6.00 Build 0)  -->
<svg version="1.1" id="Capa_1" xmlns="http://www.w3.org/2000/svg" xmlns:xlink="http://www.w3.org/1999/xlink" x="0px" y="0px"
	 viewBox="0 0 512.001 512.001" style="enable-background:new 0 0 512.001 512.001;" xml:space="preserve">
<g>
	<g>
		<path d="M263.011,312.104c-1.861-1.861-4.443-2.932-7.074-2.932c-2.632,0.001-5.213,1.071-7.074,2.932
			c-1.861,1.861-2.932,4.443-2.932,7.074s1.071,5.213,2.932,7.074c1.861,1.861,4.443,2.932,7.074,2.932
			c2.632,0,5.213-1.071,7.074-2.932c1.861-1.861,2.932-4.443,2.932-7.074S264.872,313.965,263.011,312.104z"/>
	</g>
</g>
<g>
	<g>
		<path d="M235.592,381.591h-25.348c-5.526,0-10.006,4.48-10.006,10.006s4.48,10.006,10.006,10.006h25.348
			c5.526,0,10.006-4.48,10.006-10.006S241.118,381.591,235.592,381.591z"/>
	</g>
</g>
<g>
	<g>
		<path d="M156.78,357.51c-1.861-1.87-4.433-2.932-7.074-2.932c-2.631,0-5.213,1.061-7.074,2.932
			c-1.861,1.861-2.932,4.432-2.932,7.074c0,2.632,1.071,5.213,2.932,7.074c1.861,1.861,4.443,2.932,7.074,2.932
			c2.642,0,5.213-1.071,7.074-2.932c1.871-1.861,2.932-4.443,2.932-7.074C159.711,361.943,158.651,359.371,156.78,357.51z"/>
	</g>
</g>
<g>
	<g>
		<path d="M227.83,245.946c-1.209-5.391-6.557-8.78-11.953-7.573c-19.747,4.429-37.926,12.887-54.031,25.141
			c-21.271,16.184-33.263,41.881-32.08,68.739c0.236,5.37,4.666,9.565,9.989,9.565c0.148,0,0.298-0.003,0.448-0.01
			c5.52-0.243,9.799-4.916,9.555-10.437c-0.895-20.305,8.154-39.719,24.205-51.932c13.798-10.499,29.373-17.746,46.293-21.54
			C225.647,256.689,229.038,251.338,227.83,245.946z"/>
	</g>
</g>
<g>
	<g>
		<path d="M434,117.628l-16.897-11.64c-24.088-16.596-54.599-20.325-81.733-10.504c11.962-26.64,18.289-55.708,18.289-85.478
			C353.66,4.48,349.18,0,343.654,0h-10.049c-33.001,0-62.724,18.42-77.668,46.992C240.993,18.42,211.271,0,178.269,0H168.22
			c-5.526,0-10.006,4.48-10.006,10.006c0,29.75,6.319,58.799,18.266,85.423c-27.097-9.753-57.538-6.006-81.582,10.558
			l-16.897,11.641c-3.31,2.279-4.935,6.319-4.124,10.256c0.81,3.936,3.897,7.006,7.838,7.795
			c50.663,10.136,98.746,28.871,142.911,55.683l13.674,8.301c-10.132,0.812-20.199,2.322-30.085,4.54
			c-24.697,5.538-47.432,16.116-67.574,31.442c-20.358,15.489-34.77,36.694-41.679,61.323c-6.909,24.629-5.631,50.237,3.698,74.055
			c11.269,28.773,34.666,50.503,64.192,59.619l24.809,7.66c21.267,6.567,37.969,22.279,45.821,43.106l9.093,24.118
			c1.469,3.896,5.198,6.476,9.362,6.476c4.164,0,7.894-2.579,9.362-6.476l9.093-24.118c7.852-20.827,24.554-36.538,45.821-43.106
			l24.809-7.66c29.525-9.116,52.922-30.847,64.192-59.619c9.329-23.818,10.608-49.425,3.698-74.055
			c-6.91-24.629-21.322-45.834-41.679-61.323c-20.142-15.326-42.878-25.905-67.574-31.442c-9.85-2.208-19.878-3.716-29.971-4.532
			l13.686-8.309c44.165-26.813,92.248-45.547,142.911-55.683c3.94-0.788,7.027-3.858,7.838-7.795
			C438.934,123.946,437.31,119.907,434,117.628z M108.22,121.158c20.613-13.197,46.752-14.696,68.794-3.8
			c10.673,5.275,19.885,13.247,26.64,23.051l17.897,25.981C185.859,146.319,147.879,131.162,108.22,121.158z M226.994,136.611
			c-29.205-32.284-46.225-73.359-48.505-116.6c28.962,0.093,54.616,18.562,63.887,46.018c2.359,6.986,3.555,14.268,3.555,21.643
			v14.926c-1.934-3.575-3.999-7.091-6.203-10.535l-19.221-30.045c-2.978-4.655-9.166-6.014-13.821-3.037
			c-4.655,2.979-6.014,9.166-3.037,13.821l19.221,30.045c10.194,15.933,17.126,33.549,20.56,51.933L226.994,136.611z
			 M299.281,223.728c21.871,4.905,42.001,14.272,59.836,27.842c19.032,14.481,31.469,35.19,36.065,57.604h-99.556
			c-5.526,0-10.006,4.48-10.006,10.006s4.48,10.006,10.006,10.006h101.552c-0.038,7.924-1.059,15.892-3.096,23.723h-63.103
			c-5.526,0-10.006,4.48-10.006,10.006s4.48,10.006,10.006,10.006H386.3c-10.022,18.474-26.772,32.298-47.181,38.6l-24.809,7.66
			c-26.978,8.33-48.215,28.158-58.374,54.461c-10.159-26.303-31.396-46.131-58.374-54.461l-24.809-7.66
			c-23.67-7.309-42.427-24.73-51.463-47.797c-15.673-40.013-2.734-86.133,31.465-112.153c17.835-13.571,37.967-22.937,59.835-27.841
			c14.18-3.18,28.761-4.769,43.345-4.769C270.517,218.959,285.104,220.549,299.281,223.728z M284.88,136.612l-16.436,18.169
			c3.434-18.384,10.366-36,20.56-51.933l19.221-30.045c2.978-4.655,1.619-10.842-3.037-13.821
			c-4.655-2.978-10.841-1.618-13.821,3.037l-19.221,30.045c-2.203,3.444-4.268,6.96-6.203,10.535V87.673
			c-0.001-7.375,1.196-14.657,3.555-21.644c9.27-27.455,34.925-45.924,63.887-46.016C331.105,63.253,314.085,104.328,284.88,136.612
			z M290.448,166.39l17.897-25.98c6.755-9.805,15.967-17.776,26.64-23.052c9.812-4.85,20.433-7.244,31.019-7.244
			c13.196,0,26.337,3.721,37.775,11.044C364.123,131.162,326.142,146.319,290.448,166.39z"/>
	</g>
</g>
<g>
</g>
<g>
</g>
<g>
</g>
<g>
</g>
<g>
</g>
<g>
</g>
<g>
</g>
<g>
</g>
<g>
</g>
<g>
</g>
<g>
</g>
<g>
</g>
<g>
</g>
<g>
</g>
<g>
</g>
</svg>
